<svg width="512" height="512" viewBox="0 0 512 512" xmlns="http://www.w3.org/2000/svg">
  <!-- Gradient Background Circle -->
  <defs>
    <linearGradient id="bgGradient" x1="0%" y1="0%" x2="100%" y2="100%">
      <stop offset="0%" style="stop-color:#3B82F6;stop-opacity:1" />
      <stop offset="100%" style="stop-color:#8B5CF6;stop-opacity:1" />
    </linearGradient>
    <linearGradient id="eagleGradient" x1="0%" y1="0%" x2="100%" y2="100%">
      <stop offset="0%" style="stop-color:#FFFFFF;stop-opacity:1" />
      <stop offset="100%" style="stop-color:#F0F9FF;stop-opacity:1" />
    </linearGradient>
  </defs>
  
  <!-- Background Circle -->
  <circle cx="256" cy="256" r="240" fill="url(#bgGradient)" stroke="#1E40AF" stroke-width="8"/>
  
  <!-- Eagle Silhouette -->
  <g transform="translate(256,256)">
    <!-- Eagle Body -->
    <ellipse cx="0" cy="20" rx="40" ry="80" fill="url(#eagleGradient)"/>
    
    <!-- Eagle Head -->
    <circle cx="0" cy="-60" r="35" fill="url(#eagleGradient)"/>
    
    <!-- Eagle Beak -->
    <path d="M 35,-60 L 50,-55 L 35,-50 Z" fill="#FCD34D"/>
    
    <!-- Eagle Wings -->
    <path d="M -40,0 Q -100,-20 -120,-5 Q -90,10 -40,20 Z" fill="url(#eagleGradient)"/>
    <path d="M 40,0 Q 100,-20 120,-5 Q 90,10 40,20 Z" fill="url(#eagleGradient)"/>
    
    <!-- Eagle Eye -->
    <circle cx="10" cy="-65" r="3" fill="#1F2937"/>
  </g>
  
  <!-- Book/Homework Icon -->
  <g transform="translate(256,380)">
    <rect x="-30" y="-15" width="60" height="30" rx="5" fill="#FFFFFF" stroke="#1E40AF" stroke-width="2"/>
    <line x1="-20" y1="-8" x2="20" y2="-8" stroke="#3B82F6" stroke-width="2"/>
    <line x1="-20" y1="0" x2="20" y2="0" stroke="#3B82F6" stroke-width="2"/>
    <line x1="-20" y1="8" x2="10" y2="8" stroke="#3B82F6" stroke-width="2"/>
  </g>
  
  <!-- App Name -->
  <text x="256" y="450" text-anchor="middle" font-family="Arial, sans-serif" font-size="24" font-weight="bold" fill="#FFFFFF">YOUNG EAGLES</text>
</svg>
